<svg version="1.1" id="Layer_1" xmlns:x="ns_extend;" xmlns:i="ns_ai;" xmlns:graph="ns_graphs;" xmlns="http://www.w3.org/2000/svg" xmlns:xlink="http://www.w3.org/1999/xlink" x="0px" y="0px" viewBox="0 0 66.6 76" style="enable-background:new 0 0 66.6 76;" xml:space="preserve">
 <style type="text/css">
  .st0{fill-rule:evenodd;clip-rule:evenodd;fill:#D70022;}
	.st1{fill-rule:evenodd;clip-rule:evenodd;fill:#FFFFFE;}
 </style>
 <metadata>
  <sfw xmlns="ns_sfw;">
   <slices>
   </slices>
   <sliceSourceBounds bottomLeftOrigin="true" height="76" width="66.6" x="-340.5" y="-201.4">
   </sliceSourceBounds>
  </sfw>
 </metadata>
 <g>
  <path class="st0" d="M49.6,16.1C39.7,6.2,33.3,0,33.3,0S27,6.2,17,16.1C11.8,21.3,0,34.3,0,47.3c0,8.6,7,15.6,15.6,15.6
		c5.7,0,10.6-3,13.3-7.5c0.3-0.3,0.7-0.6,1.2-0.6c0.8,0,1.5,0.6,1.4,1.3c-0.6,4.7-3.2,16.1-13.5,20h30.5C38.2,72.1,35.6,60.7,35,56
		c-0.1-0.7,0.7-1.3,1.4-1.3c0.5,0,1,0.3,1.2,0.6c2.7,4.5,7.7,7.5,13.3,7.5c8.6,0,15.6-7,15.6-15.6C66.6,34.3,54.9,21.3,49.6,16.1">
  </path>
  <polyline class="st1" points="33.3,16.1 37.6,29.1 51.3,29.1 40.2,37.2 44.4,50.2 33.3,42.2 22.3,50.2 26.5,37.2 15.4,29.1 
		29.1,29.1 33.3,16.1 	">
  </polyline>
 </g>
</svg>